<?xml version="1.0" standalone="no"?>
<!DOCTYPE svg PUBLIC "-//W3C//DTD SVG 20010904//EN"
 "http://www.w3.org/TR/2001/REC-SVG-20010904/DTD/svg10.dtd">
<svg version="1.0" xmlns="http://www.w3.org/2000/svg"
 width="1000.000000pt" height="1000.000000pt" viewBox="0 0 1000.000000 1000.000000"
 preserveAspectRatio="xMidYMid meet">
<metadata>
Created by potrace 1.14, written by Peter Selinger 2001-2017
</metadata>
<g transform="translate(0.000000,1000.000000) scale(0.100000,-0.100000)"
fill="#000000" stroke="none">
<path d="M4229 7810 c-45 -13 -143 -71 -173 -104 -78 -85 -96 -108 -149 -194
-31 -51 -57 -94 -57 -97 0 -2 -24 -55 -53 -117 -30 -62 -64 -142 -77 -178 -13
-36 -26 -69 -30 -75 -4 -5 -20 -48 -35 -95 -15 -47 -33 -91 -39 -99 -6 -8 -10
-17 -9 -20 2 -5 -85 -287 -122 -396 -8 -22 -36 -116 -63 -210 -28 -93 -58
-197 -68 -230 -9 -33 -18 -64 -20 -70 -1 -5 -14 -50 -29 -100 -14 -49 -28 -97
-30 -105 -2 -8 -11 -40 -20 -70 -9 -30 -18 -62 -20 -71 -2 -9 -28 -104 -58
-210 -31 -107 -61 -214 -67 -238 -28 -104 -20 -103 -113 -13 -45 44 -107 104
-137 132 -30 29 -84 80 -120 113 -246 232 -422 372 -585 464 -58 33 -166 83
-179 83 -7 0 -16 4 -21 9 -6 6 -23 12 -40 15 -16 3 -41 8 -55 12 -39 9 -138
20 -154 18 -8 -1 -39 -4 -68 -7 -72 -7 -226 -62 -248 -88 -3 -3 -16 -12 -29
-19 -22 -11 -50 -34 -111 -90 -49 -45 -126 -144 -180 -230 -53 -85 -115 -202
-111 -209 2 -2 -1 -7 -6 -10 -5 -3 -24 -42 -43 -86 -18 -44 -41 -98 -50 -120
-29 -67 -150 -431 -150 -452 0 -11 -3 -23 -7 -27 -4 -3 -8 -12 -9 -19 -1 -7
-9 -39 -18 -72 -10 -33 -19 -73 -22 -90 -4 -16 -9 -37 -14 -45 -4 -8 -11 -33
-14 -55 -4 -22 -21 -94 -37 -160 -16 -66 -31 -129 -34 -140 -2 -11 -11 -54
-20 -95 -9 -41 -18 -88 -21 -105 -2 -16 -6 -41 -10 -55 -11 -47 -61 -310 -70
-365 -2 -16 -7 -41 -9 -55 -13 -61 -15 -77 -20 -110 -3 -19 -7 -45 -9 -56 -2
-12 -7 -38 -10 -58 -19 -114 -23 -141 -26 -141 -1 0 -3 -18 -5 -40 -3 -21 -7
-55 -10 -75 -3 -19 -10 -62 -15 -95 -5 -33 -12 -77 -14 -99 -7 -50 -16 -114
-22 -147 -2 -15 -6 -44 -9 -65 -2 -22 -9 -60 -13 -85 -14 -72 -7 -116 23 -155
47 -61 54 -62 415 -58 378 4 494 9 675 29 242 26 395 67 575 153 30 14 57 26
60 27 20 4 164 107 232 167 88 77 96 85 162 162 22 27 47 54 54 62 6 7 12 17
12 23 0 6 4 11 8 11 12 0 140 198 204 315 58 107 137 269 183 375 15 36 36 83
45 105 33 74 131 339 186 500 30 88 57 167 61 175 3 8 7 20 8 25 2 6 13 43 25
83 24 80 22 80 86 17 56 -56 244 -227 350 -320 38 -33 82 -72 98 -87 16 -16
32 -28 35 -28 3 0 24 -17 46 -37 94 -85 360 -293 374 -293 5 0 11 -3 13 -8 7
-16 352 -252 369 -252 5 0 9 -4 9 -10 0 -5 4 -10 10 -10 5 0 33 -15 62 -34
131 -83 495 -278 593 -318 22 -9 69 -29 105 -46 65 -29 177 -77 215 -92 11 -4
31 -12 45 -18 43 -18 183 -69 225 -81 22 -7 49 -16 60 -21 17 -8 214 -71 238
-76 4 -1 10 -3 15 -4 4 -2 12 -4 17 -5 6 -2 13 -4 18 -5 4 -1 10 -3 15 -4 57
-15 87 -30 116 -59 145 -146 397 -288 589 -333 9 -2 25 -6 35 -8 135 -32 266
-53 392 -61 30 -2 55 -4 55 -5 0 -7 369 -12 1177 -15 1065 -4 1005 -7 1058 58
21 26 25 44 28 107 2 63 -1 81 -20 115 -34 59 -74 75 -209 80 -63 3 -161 8
-219 11 -58 3 -141 7 -185 9 -44 3 -116 7 -160 10 -44 3 -116 7 -160 10 -44 3
-107 7 -140 10 -33 2 -91 7 -130 10 -68 5 -124 10 -230 20 -27 3 -79 7 -115
10 -36 2 -81 6 -100 9 -19 2 -62 7 -95 11 -33 3 -67 8 -75 10 -8 2 -44 6 -80
10 -36 3 -76 7 -90 9 -14 3 -47 7 -75 10 -27 4 -61 9 -75 11 -14 3 -42 7 -62
10 -21 3 -55 7 -75 10 -21 3 -50 8 -65 11 -15 3 -42 7 -60 9 -18 3 -44 7 -58
10 -14 2 -41 7 -60 10 -19 3 -57 10 -85 15 -27 6 -59 12 -70 14 -11 2 -65 14
-120 26 -55 11 -111 23 -124 26 -24 5 -140 32 -176 41 -11 2 -37 8 -58 13 -21
4 -39 9 -40 11 -2 2 -21 27 -44 54 -56 70 -154 218 -194 295 -19 36 -37 67
-40 70 -7 5 -129 257 -129 265 0 2 -11 28 -24 57 -33 73 -152 378 -161 413 -3
13 -14 44 -25 70 -13 30 -150 448 -155 475 -1 3 -16 52 -34 110 -40 125 -130
427 -136 455 -3 11 -12 43 -20 70 -25 84 -107 368 -110 384 -2 9 -40 142 -85
296 -45 154 -90 309 -100 345 -10 36 -37 126 -60 200 -23 74 -50 162 -60 195
-40 131 -169 482 -207 565 -107 233 -164 331 -250 430 -12 14 -30 34 -40 46
-10 11 -50 39 -88 62 -62 37 -79 42 -145 45 -41 2 -86 1 -101 -3z m154 -354
c45 -49 147 -225 147 -252 0 -7 5 -14 10 -14 6 0 10 -5 10 -10 0 -6 9 -29 20
-53 30 -65 104 -260 144 -382 20 -60 41 -119 46 -130 8 -18 56 -175 66 -215 2
-8 22 -73 44 -145 23 -71 43 -137 45 -146 2 -8 17 -62 34 -120 17 -57 33 -114
36 -127 2 -12 7 -27 10 -32 3 -5 8 -18 10 -27 2 -10 62 -223 134 -473 164
-575 172 -602 179 -620 3 -8 6 -19 8 -25 4 -17 62 -199 126 -395 56 -173 174
-507 203 -575 7 -16 25 -61 40 -100 16 -38 32 -74 37 -80 4 -5 8 -15 8 -22 0
-16 171 -367 200 -408 26 -39 25 -49 -2 -41 -13 4 -30 8 -38 10 -54 14 -445
175 -568 235 -34 17 -66 31 -71 31 -4 0 -20 9 -35 21 -14 11 -26 18 -26 14 0
-4 -15 2 -32 13 -18 11 -62 35 -98 54 -36 20 -81 45 -100 57 -19 11 -44 25
-55 31 -11 5 -37 20 -57 32 -20 13 -69 43 -110 67 -40 24 -75 47 -78 51 -3 3
-23 17 -45 30 -22 14 -91 61 -153 105 -63 44 -121 85 -130 90 -10 6 -19 12
-22 15 -3 3 -25 21 -50 40 -66 51 -67 52 -165 131 -49 40 -92 76 -95 79 -3 3
-32 27 -65 55 -33 27 -65 54 -71 60 -6 5 -44 39 -85 75 -115 102 -299 274
-412 383 l-50 49 12 46 c13 53 23 87 55 197 20 71 121 427 147 521 11 44 24
86 27 94 3 8 6 20 7 25 2 6 26 89 54 185 28 96 54 184 57 195 9 33 10 38 24
85 8 25 14 47 15 50 1 3 7 25 15 50 7 25 14 50 16 55 23 94 201 616 246 725
21 48 31 74 33 80 0 3 22 50 49 105 63 133 119 221 173 273 45 43 45 43 72 26
14 -9 39 -31 54 -48z m-2608 -1800 c157 -24 382 -166 646 -407 224 -204 559
-531 559 -546 0 -9 -15 -59 -27 -93 -7 -17 -12 -34 -16 -52 -1 -7 -8 -26 -14
-43 -6 -16 -35 -102 -63 -190 -65 -201 -158 -457 -171 -469 -5 -6 -9 -20 -9
-32 0 -13 -4 -25 -9 -28 -5 -3 -12 -17 -15 -31 -4 -14 -20 -53 -35 -85 -16
-33 -28 -60 -26 -60 2 0 -10 -27 -26 -60 -16 -33 -29 -65 -29 -70 0 -6 -5 -10
-10 -10 -6 0 -9 -3 -8 -7 1 -8 -51 -121 -76 -163 -8 -14 -41 -70 -73 -125 -31
-55 -61 -104 -66 -110 -4 -5 -31 -41 -59 -79 -72 -96 -189 -212 -278 -275 -82
-57 -209 -122 -270 -136 -3 -1 -30 -9 -60 -18 -30 -9 -66 -18 -80 -21 -14 -3
-49 -9 -79 -15 -30 -6 -84 -14 -120 -17 -36 -4 -79 -8 -96 -10 -53 -6 -344
-16 -513 -18 l-163 -2 6 50 c4 28 9 58 10 67 5 24 12 76 20 139 4 30 9 64 11
75 7 32 12 67 19 115 3 25 14 92 24 150 10 58 17 108 14 113 -2 4 1 7 7 7 6 0
9 4 6 8 -3 4 -1 26 4 48 4 21 11 55 13 74 3 19 8 55 12 80 4 25 11 61 15 80 5
19 12 53 15 75 4 22 8 48 11 57 5 18 9 36 24 118 23 128 25 134 79 365 12 50
24 99 26 110 3 11 7 29 9 40 2 11 21 81 41 155 20 74 41 153 46 175 5 22 19
69 31 105 12 36 23 67 23 70 1 3 5 12 8 20 7 16 36 99 41 115 2 6 6 24 11 40
4 17 15 38 23 48 8 9 12 17 8 17 -4 0 -4 6 1 13 4 6 8 14 9 17 12 39 26 71 71
164 142 288 289 440 450 465 26 4 50 6 53 5 3 -1 23 -5 45 -8z"/>
</g>
</svg>
